# xmcd
#
# Track frame offsets:
#	150
#	15092
#	21892
#	36240
#	46425
#	57032
#	67522
#	81695
#	92820
#	112807
#
# Disc length: 1640 seconds
#
# Revision: 0
# Processed by: cddbd v1.5.2PL0 Copyright (c) Steve Scherf et al.
# Submitted via: FairStars CD Ripper 1.90
#
DISCID=6f06660a
DTITLE=Various Artist - Best Of Country Christmas
DYEAR=1991
DGENRE=Country
TTITLE0=Mickey Gilley - I'll Be Home For Christmas
TTITLE1=Willie Nelson - O Little town of Bethlehem
TTITLE2=Larry Gatlin and the Gatlin Brothers Band - Silent Night, Holy Night
TTITLE3=Tammy Wynette - Joy To The World
TTITLE4=Janie Frickie - What Child Is This?
TTITLE5=George Jones - Jingle Bells
TTITLE6=Marty Robbins - Hark The Herald Angels Sing
TTITLE7=Charlie Rich - God Rest Ye Merry Gentlemen
TTITLE8=Johnny Cash - The Ballad Of The Harp Weaver
TTITLE9=Lynn Anderson - Frosty The Snowman
EXTD=
EXTT0=
EXTT1=
EXTT2=
EXTT3=
EXTT4=
EXTT5=
EXTT6=
EXTT7=
EXTT8=
EXTT9=
PLAYORDER=
